<svg id="visual" viewBox="0 0 1200 900" width="1200" height="900" xmlns="http://www.w3.org/2000/svg" xmlns:xlink="http://www.w3.org/1999/xlink" version="1.1"><path d="M0 516L120 516L120 432L240 432L240 660L360 660L360 561L480 561L480 408L600 408L600 590L720 590L720 575L840 575L840 445L960 445L960 594L1080 594L1080 517L1200 517L1200 569L1200 901L1200 901L1080 901L1080 901L960 901L960 901L840 901L840 901L720 901L720 901L600 901L600 901L480 901L480 901L360 901L360 901L240 901L240 901L120 901L120 901L0 901Z" fill="#FF6F61" stroke-linecap="square" stroke-linejoin="miter"></path></svg>